<svg height="14.588" viewBox="0 0 14.588 14.588" width="14.588" xmlns="http://www.w3.org/2000/svg"><g fill="#fff"><path d="m10.029 0h-5.47a4.559 4.559 0 0 0 -4.559 4.559v5.471a4.559 4.559 0 0 0 4.559 4.559h5.471a4.559 4.559 0 0 0 4.559-4.559v-5.471a4.559 4.559 0 0 0 -4.56-4.559zm3.191 10.029a3.2 3.2 0 0 1 -3.191 3.191h-5.47a3.2 3.2 0 0 1 -3.191-3.191v-5.47a3.2 3.2 0 0 1 3.191-3.191h5.471a3.2 3.2 0 0 1 3.191 3.191z"/><path d="m7.294 3.647a3.647 3.647 0 1 0 3.647 3.647 3.647 3.647 0 0 0 -3.647-3.647zm0 5.926a2.279 2.279 0 1 1 2.28-2.279 2.283 2.283 0 0 1 -2.28 2.28z"/><circle cx="11.215" cy="3.374" r=".486"/></g></svg>